# xmcd CD database file
#
# Track frame offsets:
#	150
#	57252
#	103764
#	153926
#	192376
#
# Disc length: 3187 seconds
#
# Revision: 0
# Processed by: cddbd v1.5.1PL0 Copyright (c) Steve Scherf et al.
# Submitted via: CDex 1.51
#
DISCID=3c0c7105
DTITLE=Monty Alexander - Just in Time - CD 2
DYEAR=1996
DGENRE=Jazz
TTITLE0=Just In Time
TTITLE1=Blue Bossa
TTITLE2=Black Orpheus
TTITLE3=On Green Dolphin Street
TTITLE4=Soft Winds
EXTD=YEAR: 1996
EXTT0=
EXTT1=
EXTT2=
EXTT3=
EXTT4=
PLAYORDER=
